# xmcd
#
# Track frame offsets: 
#        150
#        17791
#        37276
#        51845
#        74365
#        103988
#        126439
#        142803
#        155555
#        170175
#        195188
#        208187
#        221644
#
# Disc length: 3197 seconds
#
# Revision: 0
# Processed by: cddbd v1.5.2PL0 Copyright (c) Steve Scherf et al.
# Submitted via: ExactAudioCopy v1.0b4
#
DISCID=cd0c7b0d
DTITLE=Martin Lang - Ain't No Notion
DYEAR=2017
DGENRE=Blues
TTITLE0=Backscratcher
TTITLE1=Blues With A Feeling
TTITLE2=The Hard Ten
TTITLE3=Come In This House
TTITLE4=10:30 Blues
TTITLE5=Watermelon Man
TTITLE6=Chromando
TTITLE7=You're The One
TTITLE8=Mile High Blues
TTITLE9=Blues Today
TTITLE10=Can't Hold Out Much Longer
TTITLE11=Walking By Myself
TTITLE12=Hip Twist
EXTD=
EXTT0=
EXTT1=
EXTT2=
EXTT3=
EXTT4=
EXTT5=
EXTT6=
EXTT7=
EXTT8=
EXTT9=
EXTT10=
EXTT11=
EXTT12=
PLAYORDER=
